<svg xmlns="http://www.w3.org/2000/svg" viewBox="0 0 13.03513 16.65327"><defs><style>.cls-1{fill:#414145;}</style></defs><g id="Layer_2" data-name="Layer 2"><g id="Layer_1-2" data-name="Layer 1"><path class="cls-1" d="M10.59,0H2.44516A2.45235,2.45235,0,0,0,0,2.44517V14.20811a2.45235,2.45235,0,0,0,2.44516,2.44516H10.59a2.45235,2.45235,0,0,0,2.44517-2.44516V2.44517A2.45236,2.45236,0,0,0,10.59,0ZM7.83059,9.83037a.54024.54024,0,0,1-.53865.53865H3.27443a.54023.54023,0,0,1-.53865-.53865V9.591a.54023.54023,0,0,1,.53865-.53865H7.29194a.54024.54024,0,0,1,.53865.53865ZM10.34428,7.197a.54023.54023,0,0,1-.53865.53865H3.27443A.54023.54023,0,0,1,2.73578,7.197v-.2394a.54023.54023,0,0,1,.53865-.53865h6.5312a.54023.54023,0,0,1,.53865.53865Zm0-2.6334a.54024.54024,0,0,1-.53865.53865H3.27443a.54024.54024,0,0,1-.53865-.53865V4.32416a.54024.54024,0,0,1,.53865-.53865h6.5312a.54024.54024,0,0,1,.53865.53865Z"/></g></g></svg>