<svg xmlns="http://www.w3.org/2000/svg" viewBox="0 0 14.48916 16.56602"><defs><style>.cls-1{fill:#414145;}</style></defs><g id="Layer_2" data-name="Layer 2"><g id="Layer_1-2" data-name="Layer 1"><path class="cls-1" d="M11.02663,0c.03645.06327.10547.03335.15745.05053a1.02839,1.02839,0,0,1,.55043,1.538c-.43531.65951-.89073,1.30573-1.333,1.96068-.05392.07983-.12058.07321-.195.0732Q7.8159,3.622,5.42534,3.62219c-.38766,0-.77535-.0029-1.163.00215a.20359.20359,0,0,1-.19527-.10349C3.64264,2.89277,3.21181,2.269,2.78543,1.64217a1.02815,1.02815,0,0,1,.518-1.59034C3.33451.04033,3.383.04906,3.39477,0H6.3699a1.76518,1.76518,0,0,1,.86551.59657c.14133.14787.29376.28535.43138.43646.07358.08078.11282.06966.18874-.00079A4.09785,4.09785,0,0,1,9.08633,0Z"/><path class="cls-1" d="M7.25112,4.65711c.98624,0,1.97248.00137,2.95871-.00212a.35886.35886,0,0,1,.24636.089,11.3508,11.3508,0,0,1,3.69471,5.4895,6.38932,6.38932,0,0,1,.24478,3.10927,3.34842,3.34842,0,0,1-2.3112,2.70077,9.29926,9.29926,0,0,1-2.805.47891q-2.03594.08707-4.07292-.00009a9.42092,9.42092,0,0,1-2.77448-.46819,3.36791,3.36791,0,0,1-2.36637-2.8546A7.13176,7.13176,0,0,1,.599,9.47292,11.537,11.537,0,0,1,3.69373,5.022c.10856-.09655.22843-.18044.33608-.27791A.33613.33613,0,0,1,4.27624,4.655C5.26785,4.65847,6.25949,4.65711,7.25112,4.65711Z"/></g></g></svg>