<svg xmlns="http://www.w3.org/2000/svg" viewBox="0 0 15.93108 15.93108"><defs><style>.cls-1{fill:#414145;}</style></defs><g id="Layer_2" data-name="Layer 2"><g id="Governance"><path class="cls-1" d="M14.59312,9.26736H10.01877a1.3419,1.3419,0,0,1-1.338-1.338V1.338A1.34189,1.34189,0,0,1,10.01877,0h4.57435a1.34189,1.34189,0,0,1,1.338,1.338V7.92939A1.3419,1.3419,0,0,1,14.59312,9.26736Zm1.338,5.32576V11.97439a1.3419,1.3419,0,0,0-1.338-1.338H10.01877a1.3419,1.3419,0,0,0-1.338,1.338v2.61873a1.34189,1.34189,0,0,0,1.338,1.338h4.57435A1.34189,1.34189,0,0,0,15.93108,14.59312ZM5.91232,6.66373H1.338A1.34189,1.34189,0,0,0,0,8.00169v6.59143a1.34189,1.34189,0,0,0,1.338,1.338H5.91232a1.34189,1.34189,0,0,0,1.338-1.338V8.00169A1.34189,1.34189,0,0,0,5.91232,6.66373ZM5.91232,0H1.338A1.34189,1.34189,0,0,0,0,1.338V3.95669a1.34189,1.34189,0,0,0,1.338,1.338H5.91232a1.34189,1.34189,0,0,0,1.338-1.338V1.338A1.34189,1.34189,0,0,0,5.91232,0Z"/></g></g></svg>