<svg xmlns="http://www.w3.org/2000/svg" viewBox="0 0 27.98991 19.16192"><defs><style>.cls-1{fill:#414145;}</style></defs><g id="Layer_2" data-name="Layer 2"><g id="Conviction_Board" data-name="Conviction Board"><path class="cls-1" d="M24.49006,2.426A11.71422,11.71422,0,0,0,17.888.03467l-.35318.347a15.65544,15.65544,0,0,1,5.9268,2.91622A21.67113,21.67113,0,0,0,5.67236,2.53639c-.87273.3727-1.38428.62192-1.41542.63693A13.83549,13.83549,0,0,1,10.44172.2571L10.182.00094A11.70683,11.70683,0,0,0,3.4785,2.411,29.3679,29.3679,0,0,0,0,15.73419s1.92786,3.30232,7.21588,3.42773c0,0,.77221-1.0114,1.55243-1.90191A7.63093,7.63093,0,0,1,4.643,14.5964l.992.50345c2.90379,1.17878,5.97662,2.66538,11.44968,1.77665a17.99813,17.99813,0,0,0,3.4696-1.01512,28.04774,28.04774,0,0,0,2.69206-1.39766,7.68308,7.68308,0,0,1-4.25071,2.66361c.63788.88438,1.53375,1.89772,1.53375,1.89772a10.11381,10.11381,0,0,0,7.46054-3.27568A29.29737,29.29737,0,0,0,24.49006,2.426ZM9.53873,13.4549a2.537,2.537,0,0,1,0-5.0709l.008-.00629a2.54042,2.54042,0,0,1-.008,5.07719Zm8.76476,0a2.537,2.537,0,0,1,0-5.0709V8.37771a2.54026,2.54026,0,0,1,0,5.07719Z"/></g></g></svg>