<svg xmlns="http://www.w3.org/2000/svg" viewBox="0 0 122.34271 102.76787"><defs><style>.cls-1{fill:#d2dbfd;}.cls-2{fill:#4569f5;}.cls-3{fill:#8fa5f9;}.cls-4{fill:#23357b;}</style></defs><g id="Layer_2" data-name="Layer 2"><g id="Layer_1-2" data-name="Layer 1"><rect class="cls-1" width="122.34271" height="102.76787" rx="10.57979"/><polygon class="cls-2" points="61.165 18.525 60.725 20.023 60.725 63.477 61.165 63.916 81.336 51.994 61.165 18.525"/><polygon class="cls-3" points="61.165 18.525 40.995 51.994 61.165 63.916 61.165 42.825 61.165 18.525"/><polygon class="cls-2" points="61.165 67.735 60.917 68.038 60.917 83.517 61.165 84.243 81.348 55.819 61.165 67.735"/><polygon class="cls-3" points="61.165 84.243 61.165 67.735 40.995 55.819 61.165 84.243"/><polygon class="cls-4" points="61.165 63.916 81.336 51.994 61.165 42.825 61.165 63.916"/><polygon class="cls-2" points="40.995 51.994 61.165 63.916 61.165 42.825 40.995 51.994"/></g></g></svg>