<svg xmlns="http://www.w3.org/2000/svg" viewBox="0 0 40.14395 40.14395"><defs><style>.cls-1{fill:#fbfbfb;}.cls-2{fill:#4569f5;}.cls-3{fill:#8fa5f9;}.cls-4{fill:#23357b;}</style></defs><g id="Layer_2" data-name="Layer 2"><g id="Layer_1-2" data-name="Layer 1"><rect class="cls-1" width="40.14395" height="40.14395" rx="20.07196"/><polygon class="cls-2" points="20.07 8.126 19.91 8.67 19.91 24.468 20.07 24.628 27.403 20.294 20.07 8.126"/><polygon class="cls-3" points="20.07 8.126 12.737 20.294 20.07 24.628 20.07 16.96 20.07 8.126"/><polygon class="cls-2" points="20.07 26.017 19.979 26.127 19.979 31.754 20.07 32.018 27.407 21.684 20.07 26.017"/><polygon class="cls-3" points="20.07 32.018 20.07 26.017 12.737 21.684 20.07 32.018"/><polygon class="cls-4" points="20.07 24.628 27.403 20.294 20.07 16.96 20.07 24.628"/><polygon class="cls-2" points="12.737 20.294 20.07 24.628 20.07 16.96 12.737 20.294"/></g></g></svg>