<svg xmlns="http://www.w3.org/2000/svg" viewBox="0 0 15.18455 15.18377"><defs><style>.cls-1{fill:gray;}</style></defs><g id="Layer_2" data-name="Layer 2"><g id="Layer_1-2" data-name="Layer 1"><path class="cls-1" d="M7.59228,0a7.59189,7.59189,0,1,0,7.59227,7.59186A7.60072,7.60072,0,0,0,7.59228,0Zm0,13.8034a6.2115,6.2115,0,1,1,6.21186-6.21154A6.21872,6.21872,0,0,1,7.59228,13.8034Z"/><path class="cls-1" d="M7.59228,5.98179a.69023.69023,0,0,0-.69021.69021v4.6006a.69021.69021,0,0,0,1.38041,0V6.672A.69026.69026,0,0,0,7.59228,5.98179Z"/><path class="cls-1" d="M7.59228,3.2211a.68974.68974,0,1,0,.48816.202A.6961.6961,0,0,0,7.59228,3.2211Z"/></g></g></svg>