<svg xmlns="http://www.w3.org/2000/svg" viewBox="0 0 211.80278 39.3139"><defs><style>.cls-1,.cls-2{fill:#4569f5;}.cls-1{fill-rule:evenodd;}</style></defs><g id="Layer_2" data-name="Layer 2"><g id="Layer_1-2" data-name="Layer 1"><path class="cls-1" d="M44.313,25.50085v5.953c0,5.34-2.404,7.86-7.484,7.86H24.948c-5.08,0-7.494-2.52-7.494-7.86v-4.608h6.315v4.326c0,1.577.542,2.133,1.982,2.133h10.17c1.436,0,1.978-.556,1.978-2.133v-4.714c0-1.805-.693-2.358-2.461-2.759l-10.169-2.355c-4.492-1.074-7.699-2.76-7.699-8.086V9.9939h6.414v2.31c0,1.791.693,2.355,2.52,2.805l10.114,2.295c4.548,1.074,7.695,2.76,7.695,8.097"/><path class="cls-1" d="M17.2036,22.63885H6.41059v16.675H3.5096a3.50261,3.50261,0,0,1-3.509-3.509V9.9939h6.41v6.516h8.72Z"/><path class="cls-1" d="M44.313,7.861v4.217H38.054V8.319c0-1.577-.532-2.134-2.028-2.134H16.098v-.01H0V3.415A3.41827,3.41827,0,0,1,3.415,0H36.829c5.08,0,7.484,2.521,7.484,7.861"/><polygon class="cls-2" points="73.001 11.512 73.001 17.801 80.253 17.801 80.253 21.685 73.001 21.685 73.001 31.686 68.808 31.686 68.808 7.628 82.693 7.628 82.693 11.512 73.001 11.512"/><rect class="cls-2" x="108.6722" y="7.62817" width="4.19299" height="24.05798"/><path class="cls-2" d="M135.3407,10.103V18.111a2.13556,2.13556,0,0,1-1.787,2.199,2.0575,2.0575,0,0,1,1.787,2.165v9.211h-4.193V23.025c0-.51495-.24-.79-.756-.79h-6.358v9.451h-4.193V7.628h12.957a2.43924,2.43924,0,0,1,2.543,2.475m-4.846,1.409h-6.461v6.839h6.358c.516,0,.756-.275.756-.79V12.199c0-.447-.172-.687-.653-.687"/><path class="cls-2" d="M157.6093,10.103V14.33h-4.193V12.2c0-.447-.172-.688-.653-.688h-5.774c-.481,0-.653.241-.653.688v4.777c0,.446.172.687.653.687h8.076a2.4193,2.4193,0,0,1,2.544,2.474v9.074a2.43865,2.43865,0,0,1-2.544,2.474h-10.378a2.4593,2.4593,0,0,1-2.544-2.474V24.675h4.193v2.44c0,.447.172.688.653.688h5.774c.481,0,.653-.241.653-.688V22.2c0-.412-.172-.653-.653-.653h-8.076a2.4393,2.4393,0,0,1-2.544-2.474v-8.97a2.44007,2.44007,0,0,1,2.544-2.475h10.378a2.42008,2.42008,0,0,1,2.544,2.475"/><rect class="cls-2" x="164.51521" y="7.62817" width="4.19299" height="24.05798"/><path class="cls-2" d="M191.15007,10.103V29.212a2.43839,2.43839,0,0,1-2.543,2.474h-12.923V7.628h12.923a2.41981,2.41981,0,0,1,2.543,2.475m-4.846,1.409h-6.427V27.803h6.427c.481,0,.653-.241.653-.688V12.199c0-.447-.172-.687-.653-.687"/><polygon class="cls-2" points="202.145 11.512 202.145 17.664 209.363 17.664 209.363 21.582 202.145 21.582 202.145 27.803 211.803 27.803 211.803 31.686 197.952 31.686 197.952 7.628 211.803 7.628 211.803 11.512 202.145 11.512"/><polygon class="cls-2" points="95.855 7.628 91.353 7.628 84.273 31.686 88.535 31.686 90.013 26.324 91.08 22.441 91.078 22.441 93.621 13.196 97.196 26.324 98.673 31.686 102.935 31.686 95.855 7.628"/></g></g></svg>