<svg xmlns="http://www.w3.org/2000/svg" xmlns:xlink="http://www.w3.org/1999/xlink" viewBox="0 0 398.98035 308.66667"><defs><style>.cls-1{isolation:isolate;}.cls-2{mask:url(#mask);}.cls-3{fill:url(#linear-gradient);}.cls-4{mix-blend-mode:overlay;opacity:0.68;}.cls-5,.cls-6{stroke-miterlimit:10;stroke-width:0.29579px;}.cls-5{fill:url(#radial-gradient);stroke:url(#radial-gradient-2);}.cls-6{fill:url(#radial-gradient-3);stroke:url(#radial-gradient-4);}.cls-7{filter:url(#luminosity-noclip);}</style><filter id="luminosity-noclip" x="-0.70227" y="-0.5429" width="443.3115" height="309.20956" filterUnits="userSpaceOnUse" color-interpolation-filters="sRGB"><feFlood flood-color="#fff" result="bg"/><feBlend in="SourceGraphic" in2="bg"/></filter><mask id="mask" x="-0.70227" y="-0.5429" width="443.3115" height="309.20956" maskUnits="userSpaceOnUse"><g class="cls-7"/></mask><linearGradient id="linear-gradient" y1="154.33333" x2="398.98035" y2="154.33333" gradientUnits="userSpaceOnUse"><stop offset="0" stop-color="#4569f5"/><stop offset="0.01343" stop-color="#466af5"/><stop offset="0.44526" stop-color="#6e8af7"/><stop offset="0.78911" stop-color="#869ef9"/><stop offset="1" stop-color="#8fa5f9"/></linearGradient><radialGradient id="radial-gradient" cx="314.56175" cy="78.36867" r="82.15061" gradientTransform="translate(-56.34237 76.02062)" gradientUnits="userSpaceOnUse"><stop offset="0" stop-color="#fff0ed" stop-opacity="0.5"/><stop offset="0.14003" stop-color="#fff1ee" stop-opacity="0.47115"/><stop offset="0.34924" stop-color="#fff3f1" stop-opacity="0.39134"/><stop offset="0.60177" stop-color="#fff7f6" stop-opacity="0.2607"/><stop offset="0.88578" stop-color="#fffdfc" stop-opacity="0.08068"/><stop offset="1" stop-color="#fff" stop-opacity="0"/></radialGradient><radialGradient id="radial-gradient-2" cx="314.56175" cy="78.3496" r="82.30535" gradientTransform="translate(-56.34237 76.02062)" gradientUnits="userSpaceOnUse"><stop offset="0" stop-color="#231f20"/><stop offset="1" stop-color="#fff"/></radialGradient><radialGradient id="radial-gradient-3" cx="197.34518" cy="77.97202" r="82.06371" xlink:href="#radial-gradient"/><radialGradient id="radial-gradient-4" cx="197.34518" cy="77.97609" r="82.23262" xlink:href="#radial-gradient-2"/></defs><g class="cls-1"><g id="Layer_2" data-name="Layer 2"><g id="Proposal_Page" data-name="Proposal Page"><g class="cls-2"><rect class="cls-3" width="398.98035" height="308.66667"/></g><g class="cls-4"><path class="cls-5" d="M218.91689,164.8363l56.30647,14.53309c8.80414,2.237,12.18816,4.85592,12.18816,12.89441v20.98169c0,7.02-2.64208,9.558-9.75921,9.72534l-55.82545,1.31292c-8.76638.20618-12.12886-2.52137-12.12886-10.47937l0-21.8311-10.20781-.26458,0,62.20814a83.23952,83.23952,0,0,0,17.47878.46881l65.20384-4.53216c24.06187-1.67249,34.77578-13.06683,34.77578-35.63053l0-25.15168c0-22.54876-14.10838-30.94255-35.82062-37.72657l-54.807-16.67054c-11.00921-3.52857-15.28732-6.87492-15.28732-15.898V107.14691l-11.54352-1.788,0,53.16712A155.82809,155.82809,0,0,0,218.91689,164.8363Zm98.03168-32.479V114.53845c0-22.56377-10.71392-35.69236-34.77579-41.25971L199.49016,54.148V85.8414l78.69139,14.48234c7.39686,1.36132,9.98035,4.30941,9.98035,11.32035v16.71357Z"/><path class="cls-6" d="M199.97384,191.69617l0,62.25307c-19.88965-5.47969-29.06538-18.08634-29.06538-38.89553l0-22.60418Zm-28.3779-65.99184c0,19.58313,10.83266,28.22974,28.3779,32.78524l0-53.20553-28.37789,4.39542ZM111.6572,147.97227l0-29.00894L82.03176,123.552l0,109.05521c0,8.21029,6.95741,15.31273,15.83547,15.92982l13.79.95851,0-74.23835,57.77691-3.3577L157.46092,143.162ZM97.42641,77.76311c-8.59564,1.98883-15.39465,10.032-15.39465,17.98965v11.66105l80.9632-14.907V92.558l36.97887-6.8056,0-31.71633Z"/></g></g></g></g></svg>