<svg xmlns="http://www.w3.org/2000/svg" xmlns:xlink="http://www.w3.org/1999/xlink" viewBox="0 0 122.34271 102.76787"><defs><style>.cls-1{fill:url(#linear-gradient);}.cls-2{fill:#fbfbfb;fill-rule:evenodd;}</style><linearGradient id="linear-gradient" y1="51.38394" x2="122.34271" y2="51.38394" gradientUnits="userSpaceOnUse"><stop offset="0" stop-color="#4569f5"/><stop offset="1" stop-color="#8fa5f9"/></linearGradient></defs><g id="Layer_2" data-name="Layer 2"><g id="Layer_1-2" data-name="Layer 1"><rect class="cls-1" width="122.34271" height="102.76787" rx="10.57979"/><path class="cls-2" d="M90.88984,59.22236v7.98475c0,7.16257-3.22449,10.54267-10.03829,10.54267h-15.936c-6.81379,0-10.05168-3.3801-10.05168-10.54267V61.02645h8.47029v5.80244c0,2.11526.727,2.861,2.65846,2.861h13.641c1.92612,0,2.65311-.74572,2.65311-2.861V60.506c0-2.421-.92953-3.16274-3.30093-3.70061L65.34614,53.6466c-6.02511-1.44052-10.32666-3.702-10.32666-10.84574v-4.378h8.6031v3.0984c0,2.40229.92952,3.15873,3.38006,3.76233l13.5659,3.07826c6.10023,1.4406,10.3213,3.702,10.3213,10.86048"/><path class="cls-2" d="M54.528,55.38356H40.05138V77.74978h-3.8911a4.69805,4.69805,0,0,1-4.70662-4.70666V38.42289h8.59772v8.73989H51.74751Z"/><path class="cls-2" d="M90.88984,35.562V41.2183H82.49465v-5.042c0-2.11518-.71357-2.86229-2.72015-2.86229H53.04509v-.01343H31.45286V29.59868a4.58493,4.58493,0,0,1,4.58054-4.58059H80.85155c6.8138,0,10.03829,3.38141,10.03829,10.5439"/></g></g></svg>