<svg xmlns="http://www.w3.org/2000/svg" viewBox="0 0 16.59889 16.83306"><defs><style>.cls-1{fill:#414145;}</style></defs><g id="Layer_2" data-name="Layer 2"><g id="Governance"><path class="cls-1" d="M10.62737,13.86635h4.75405a1.21747,1.21747,0,0,1,1.21747,1.21747v1.41688a.33235.33235,0,0,1-.33235.33235H9.74225a.33235.33235,0,0,1-.33235-.33235V15.08382A1.21747,1.21747,0,0,1,10.62737,13.86635Z"/><path class="cls-1" d="M7.12663.99456,6.26657.1345a.46248.46248,0,0,0-.65212,0L2.3108,3.43815a.46246.46246,0,0,0,0,.65212l.86006.86006Z" transform="translate(0 0)"/><path class="cls-1" d="M12.86441,6.73234,7.84475,1.71268,3.889,5.66845,5.29944,7.07891.10735,12.271a.36911.36911,0,0,0,0,.52047l1.67827,1.67827a.36911.36911,0,0,0,.52047,0L7.49818,9.27765l1.41046,1.41046Z" transform="translate(0 0)"/><path class="cls-1" d="M14.44259,8.31052l-.86006-.86006L9.62675,11.40623l.86007.86006a.46248.46248,0,0,0,.65212,0l3.30365-3.30365A.46248.46248,0,0,0,14.44259,8.31052Z" transform="translate(0 0)"/></g></g></svg>