<svg xmlns="http://www.w3.org/2000/svg" viewBox="0 0 17.11765 16.8325"><defs><style>.cls-1{fill:#414145;}</style></defs><g id="Layer_2" data-name="Layer 2"><g id="Layer_1-2" data-name="Layer 1"><path class="cls-1" d="M16.57434,6.9955,9.76632.4845a1.747,1.747,0,0,0-2.415,0l-6.808,6.511a1.74716,1.74716,0,0,0,1.208,3.01h.211v6.041a.78805.78805,0,0,0,.786.786h2.514a1.13055,1.13055,0,0,0,1.131-1.131v-3.359a.6664.6664,0,0,1,.665-.664h3.001a.66643.66643,0,0,1,.665.664v3.359a1.13051,1.13051,0,0,0,1.131,1.131h2.514a.78805.78805,0,0,0,.786-.786v-6.041h.211a1.74718,1.74718,0,0,0,1.208-3.01"/></g></g></svg>