<svg xmlns="http://www.w3.org/2000/svg" viewBox="0 0 21.31149 21.31149"><defs><style>.cls-1{fill:gray;}</style></defs><g id="Layer_2" data-name="Layer 2"><g id="Governance"><path class="cls-1" d="M10.65575,0A10.65575,10.65575,0,1,0,21.31149,10.65575,10.65575,10.65575,0,0,0,10.65575,0Zm0,19.18034a8.5246,8.5246,0,1,1,8.52459-8.52459A8.52459,8.52459,0,0,1,10.65575,19.18034Z"/><path class="cls-1" d="M10.65575,4.7775A1.06557,1.06557,0,0,0,9.59017,5.84307v4.891L6.70246,13.61111a1.06558,1.06558,0,1,0,1.50246,1.50246l3.19673-3.19672a1.06557,1.06557,0,0,0,.31967-.7459V5.84307A1.06557,1.06557,0,0,0,10.65575,4.7775Z"/></g></g></svg>