<svg xmlns="http://www.w3.org/2000/svg" viewBox="0 0 21.60608 21.60602"><defs><style>.cls-1{fill:#4569f5;}</style></defs><g id="Layer_2" data-name="Layer 2"><g id="Layer_1-2" data-name="Layer 1"><path class="cls-1" d="M10.8031,0a10.803,10.803,0,1,0,10.803,10.803A10.81566,10.81566,0,0,0,10.8031,0m0,19.642a8.83847,8.83847,0,1,1,8.839-8.839,8.84887,8.84887,0,0,1-8.839,8.839"/><path class="cls-1" d="M10.8031,8.51221a.98243.98243,0,0,0-.98206.98205v6.547a.982.982,0,0,0,1.964,0v-6.547a.9824.9824,0,0,0-.98193-.98205"/><path class="cls-1" d="M10.8031,4.58386a.97994.97994,0,1,0,.69495.28705.99437.99437,0,0,0-.69495-.28705"/></g></g></svg>