<svg xmlns="http://www.w3.org/2000/svg" viewBox="0 0 14.608 17.752"><defs><style>.cls-1{fill:#414145;}</style></defs><g id="Layer_2" data-name="Layer 2"><g id="Layer_1-2" data-name="Layer 1"><path class="cls-1" d="M14.18184,12.628l-1.56592-1.313a5.8571,5.8571,0,0,0,0-4.878l1.56592-1.313a1.1984,1.1984,0,0,0,.14709-1.685l-.45105-.538a1.198,1.198,0,0,0-1.684-.147l-1.567,1.315a5.76665,5.76665,0,0,0-1.776-.829V1.195A1.19838,1.19838,0,0,0,7.65486,0h-.703A1.19815,1.19815,0,0,0,5.75691,1.195V3.24a5.75365,5.75365,0,0,0-1.776.829l-1.567-1.315a1.19809,1.19809,0,0,0-1.684.147l-.452.538a1.20026,1.20026,0,0,0,.148,1.685l1.566,1.314a5.86224,5.86224,0,0,0,0,4.876l-1.566,1.314a1.20025,1.20025,0,0,0-.148,1.685l.452.538a1.19809,1.19809,0,0,0,1.684.147l1.567-1.315a5.75365,5.75365,0,0,0,1.776.829v2.045a1.19815,1.19815,0,0,0,1.19495,1.195h.703a1.19838,1.19838,0,0,0,1.196-1.195V14.512a5.76665,5.76665,0,0,0,1.776-.829l1.567,1.315a1.198,1.198,0,0,0,1.684-.147l.45105-.538a1.19839,1.19839,0,0,0-.14709-1.685M3.91694,8.876a3.38207,3.38207,0,0,1,1.84-3.013c.07593-.04.15295-.076.23193-.11a3.40707,3.40707,0,0,1,2.63,0c.078.034.156.07.232.11a3.38643,3.38643,0,0,1,0,6.026c-.076.04-.154.076-.232.11a3.40707,3.40707,0,0,1-2.63,0c-.079-.034-.156-.07-.23193-.11a3.38207,3.38207,0,0,1-1.84-3.013"/></g></g></svg>