<svg xmlns="http://www.w3.org/2000/svg" viewBox="0 0 16.98603 17.06524"><defs><style>.cls-1{fill:#414145;}</style></defs><g id="Layer_2" data-name="Layer 2"><g id="Governance"><circle class="cls-1" cx="8.49301" cy="3.85184" r="3.85184"/><path class="cls-1" d="M13.27934,6.98994h0A1.854,1.854,0,0,0,11.722,7.8191a3.8509,3.8509,0,0,1-6.45791,0A1.854,1.854,0,0,0,3.7067,6.98994h0A1.87738,1.87738,0,0,0,1.90324,8.34569L.07509,14.66624a1.87737,1.87737,0,0,0,1.80345,2.399h13.229a1.87737,1.87737,0,0,0,1.80345-2.399L15.08279,8.34569A1.87738,1.87738,0,0,0,13.27934,6.98994Z"/></g></g></svg>