<svg xmlns="http://www.w3.org/2000/svg" viewBox="0 0 23.69908 28.80064"><defs><style>.cls-1{fill:#414145;}</style></defs><g id="Layer_2" data-name="Layer 2"><g id="Layer_1-2" data-name="Layer 1"><path class="cls-1" d="M23.0078,20.48785l-2.54038-2.13153a9.49909,9.49909,0,0,0,0-7.912L23.0078,8.31279A1.94391,1.94391,0,0,0,23.247,5.5801l-.73205-.87264a1.94552,1.94552,0,0,0-2.73269-.23918l-2.542,2.13314A9.372,9.372,0,0,0,14.35888,5.2569V1.93922A1.94491,1.94491,0,0,0,12.41966,0H11.27875A1.94491,1.94491,0,0,0,9.33954,1.93922V5.2569A9.3721,9.3721,0,0,0,6.45818,6.60142l-2.542-2.13314a1.94357,1.94357,0,0,0-2.73108.23918L.45145,5.5801A1.9454,1.9454,0,0,0,.69061,8.31279l2.542,2.13314a9.49179,9.49179,0,0,0,0,7.90878l-2.542,2.13314a1.9454,1.9454,0,0,0-.23916,2.73269l.73366.87264a1.94358,1.94358,0,0,0,2.73108.23918l2.542-2.13315a9.37189,9.37189,0,0,0,2.88136,1.34453v3.31768a1.94492,1.94492,0,0,0,1.93921,1.93922h1.14091a1.94492,1.94492,0,0,0,1.93922-1.93922V23.54374a9.37179,9.37179,0,0,0,2.88136-1.34453l2.542,2.13315a1.94553,1.94553,0,0,0,2.73269-.23918l.73205-.87264A1.94391,1.94391,0,0,0,23.0078,20.48785Zm-16.653-6.08753A5.48312,5.48312,0,0,1,9.33954,9.51187c.12281-.06465.24886-.12282.37653-.17776a5.52678,5.52678,0,0,1,4.26628,0c.12767.05494.25371.11311.37653.17776a5.49431,5.49431,0,0,1,0,9.7769c-.12282.06464-.24886.12282-.37653.17776a5.5269,5.5269,0,0,1-4.26628,0c-.12767-.05494-.25372-.11312-.37653-.17776a5.48312,5.48312,0,0,1-2.98478-4.88845Z"/></g></g></svg>