<svg xmlns="http://www.w3.org/2000/svg" viewBox="0 0 16.38911 18.59343"><defs><style>.cls-1{fill:#414145;}</style></defs><g id="Layer_2" data-name="Layer 2"><g id="Governance"><rect class="cls-1" x="6.10575" width="10.28336" height="2.45898" rx="0.61644"/><rect class="cls-1" x="6.10575" y="3.22692" width="10.28336" height="2.45898" rx="0.61644"/><path class="cls-1" d="M16.38911,7.07044V8.29625a.61833.61833,0,0,1-.61652.61652h-5.79a.113.113,0,0,1-.09387-.05036A6.35884,6.35884,0,0,0,7.356,6.67a.11342.11342,0,0,1,.04813-.21612h8.36843A.61834.61834,0,0,1,16.38911,7.07044Z"/><path class="cls-1" d="M16.38911,10.29717v1.22629a.61834.61834,0,0,1-.61652.61652H11.06131a.11357.11357,0,0,1-.11309-.108,6.29223,6.29223,0,0,0-.52274-2.19273.11319.11319,0,0,1,.10392-.15856h5.24319A.6183.6183,0,0,1,16.38911,10.29717Z"/><path class="cls-1" d="M16.38911,13.52438v1.2258a.61833.61833,0,0,1-.61652.61652H10.39886a.11319.11319,0,0,1-.10156-.16356,6.28944,6.28944,0,0,0,.63026-2.19221.11351.11351,0,0,1,.1127-.10307h4.73233A.61833.61833,0,0,1,16.38911,13.52438Z"/><path class="cls-1" d="M16.38911,16.7511v1.22629a.61789.61789,0,0,1-.61652.616H6.72242l-.004,0a.11337.11337,0,0,1-.03247-.22073A6.34374,6.34374,0,0,0,9.69415,16.18a.1129.1129,0,0,1,.09032-.04541h5.98812A.61833.61833,0,0,1,16.38911,16.7511Z"/><circle class="cls-1" cx="4.62751" cy="12.38421" r="4.62751"/></g></g></svg>