<svg xmlns="http://www.w3.org/2000/svg" viewBox="0 0 151.71809 151.71702"><defs><style>.cls-1{fill:#4569f5;}.cls-2{fill:none;stroke:#4569f5;stroke-miterlimit:10;stroke-width:7.253px;}</style></defs><g id="Layer_2" data-name="Layer 2"><g id="Layer_1-2" data-name="Layer 1"><path class="cls-1" d="M101.68546,82.1843a2.53074,2.53074,0,0,0-3.577,0l-3.27209,3.272a2.53085,2.53085,0,0,0,0,3.577l3.27209,3.272h-45.022a7.59925,7.59925,0,0,1-7.59106-7.591,3.8,3.8,0,0,0-3.795-3.795h-2.531a3.8,3.8,0,0,0-3.79493,3.795,17.73126,17.73126,0,0,0,17.712,17.712h45.022l-3.27209,3.272a2.53076,2.53076,0,0,0,0,3.577l3.27209,3.272a2.53074,2.53074,0,0,0,3.577,0l14.288-14.286a1.26619,1.26619,0,0,0,0-1.79Z"/><path class="cls-1" d="M50.03275,69.53293a2.53047,2.53047,0,0,0,3.5769,0l3.2721-3.272a2.52632,2.52632,0,0,0,0-3.577l-3.2721-3.272h45.0221a7.59923,7.59923,0,0,1,7.59094,7.591,3.8,3.8,0,0,0,3.79505,3.795h2.531a3.8,3.8,0,0,0,3.79492-3.795A17.73123,17.73123,0,0,0,98.63175,49.291H53.60965l3.2721-3.272a2.52625,2.52625,0,0,0,0-3.577l-3.2721-3.272a2.53058,2.53058,0,0,0-3.5769,0L35.74466,53.456a1.26621,1.26621,0,0,0,0,1.79Z"/><circle class="cls-2" cx="75.85929" cy="75.8585" r="72.23279" transform="translate(-0.3746 0.37646) rotate(-0.28364)"/></g></g></svg>