<svg xmlns="http://www.w3.org/2000/svg" viewBox="0 0 113.90973 101.05981"><defs><style>.cls-1{fill:#4569f5;fill-rule:evenodd;}</style></defs><g id="Layer_2" data-name="Layer 2"><g id="Layer_1-2" data-name="Layer 1"><path class="cls-1" d="M113.90973,65.55164v15.302c0,13.72705-6.18,20.20605-19.238,20.20605h-30.541c-13.05695,0-19.265-6.479-19.265-20.20605v-11.845h16.234v11.121c0,4.054,1.393,5.484,5.09406,5.484H92.33667c3.692,0,5.08606-1.43,5.08606-5.484V68.0127c0-4.642-1.783-6.063-6.326-7.09406l-26.142-6.054c-11.547-2.76-19.79-7.094-19.79-20.786v-8.388h16.487v5.936c0,4.606,1.782,6.054,6.479,7.212l25.998,5.9c11.691,2.76,19.781,7.095,19.781,20.813"/><path class="cls-1" d="M44.223,58.19476H16.479v42.865H9.022A9.00632,9.00632,0,0,1,0,92.03778V25.6908H16.479v16.75H38.893Z"/><path class="cls-1" d="M113.90973,20.207V31.048h-16.089V21.383c0-4.054-1.367-5.483-5.212-5.483h-51.227v-.028H.00073V8.778A8.78606,8.78606,0,0,1,8.77771,0h85.894c13.058,0,19.238,6.48,19.238,20.207"/></g></g></svg>