<svg xmlns="http://www.w3.org/2000/svg" viewBox="0 0 29.16432 23.69601"><defs><style>.cls-1{fill:#414145;}</style></defs><g id="Layer_2" data-name="Layer 2"><g id="Conviction_Board" data-name="Conviction Board"><path class="cls-1" d="M26.16769,5.90942A16.901,16.901,0,0,1,9.17218,23.696,16.8374,16.8374,0,0,1,0,21.0129a11.30883,11.30883,0,0,0,1.43027.08141,12.01854,12.01854,0,0,0,7.41381-2.54944A6.03789,6.03789,0,0,1,3.2579,14.37923a5.27734,5.27734,0,0,0,1.13133.10207,5.94526,5.94526,0,0,0,1.56758-.19686A6.007,6.007,0,0,1,1.16657,8.40905V8.34343a5.91008,5.91008,0,0,0,2.70135.7364,5.97872,5.97872,0,0,1-1.83735-7.991A16.92746,16.92746,0,0,0,14.35492,7.34333a6.15642,6.15642,0,0,1-.13853-1.36343A5.97852,5.97852,0,0,1,24.55879,1.892,11.96315,11.96315,0,0,0,28.35015.44476a5.94714,5.94714,0,0,1-2.63086,3.30407,12.48679,12.48679,0,0,0,3.445-.94419v.00121a11.935,11.935,0,0,1-2.99663,3.10357Z"/></g></g></svg>